<?xml version="1.0" encoding="UTF-8"?>
<!DOCTYPE svg PUBLIC "-//W3C//DTD SVG 1.1//EN" "http://www.w3.org/Graphics/SVG/1.1/DTD/svg11.dtd">
<svg version="1.1" xmlns="http://www.w3.org/2000/svg" xmlns:xlink="http://www.w3.org/1999/xlink" x="0" y="0" width="557.147" height="178.037" viewBox="0, 0, 557.147, 178.037">
  <g id="Layer_1">
    <g>
      <path d="M24.044,37.447 C36.673,40.201 42.502,44.814 42.502,53.557 C42.502,63.353 34.405,69.668 23.153,69.668 C14.167,69.668 6.8,66.674 0,60.601 L3.968,55.904 C9.876,61.248 15.544,63.92 23.396,63.92 C31.006,63.92 36.024,59.952 36.024,54.205 C36.024,48.861 33.19,45.867 21.291,43.357 C8.258,40.523 2.267,36.315 2.267,26.924 C2.267,17.857 10.119,11.381 20.887,11.381 C29.143,11.381 35.054,13.727 40.8,18.343 L37.077,23.28 C31.815,18.989 26.554,17.129 20.724,17.129 C13.356,17.129 8.663,21.176 8.663,26.356 C8.663,31.782 11.575,34.777 24.044,37.447" fill="#296876"/>
      <path d="M191.859,44.653 C191.859,61.168 182.387,69.748 168.22,69.748 C154.215,69.748 144.664,61.168 144.664,45.138 L144.664,12.189 L151.058,12.189 L151.058,44.733 C151.058,56.958 157.535,63.84 168.382,63.84 C178.825,63.84 185.464,57.524 185.464,45.138 L185.464,12.189 L191.859,12.189 z" fill="#296876"/>
      <path d="M255.793,12.189 L262.025,12.189 L262.025,68.857 L256.926,68.857 L220.333,22.39 L220.333,68.857 L214.102,68.857 L214.102,12.189 L220.091,12.189 L255.793,57.605 z" fill="#296876"/>
      <path d="M304.83,18.1 L291.554,18.1 L291.554,62.949 L304.83,62.949 C319.16,62.949 328.307,53.234 328.307,40.605 C328.307,27.976 319.16,18.1 304.83,18.1 M304.83,68.857 L285.159,68.857 L285.159,12.189 L304.83,12.189 C322.64,12.189 334.945,24.413 334.945,40.443 C334.945,56.472 322.64,68.857 304.83,68.857" fill="#296876"/>
      <path d="M375.079,37.447 C387.707,40.201 393.536,44.814 393.536,53.557 C393.536,63.353 385.44,69.668 374.188,69.668 C365.202,69.668 357.835,66.674 351.034,60.601 L355.002,55.904 C360.911,61.248 366.577,63.92 374.431,63.92 C382.04,63.92 387.059,59.952 387.059,54.205 C387.059,48.861 384.225,45.867 372.327,43.357 C359.292,40.523 353.302,36.315 353.302,26.924 C353.302,17.857 361.154,11.381 371.921,11.381 C380.179,11.381 386.089,13.727 391.836,18.343 L388.112,23.28 C382.849,18.989 377.588,17.129 371.759,17.129 C364.391,17.129 359.696,21.176 359.696,26.356 C359.696,31.782 362.61,34.777 375.079,37.447" fill="#296876"/>
      <path d="M422.634,68.857 L416.239,68.857 L416.239,12.189 L422.634,12.189 z" fill="#296876"/>
      <path d="M467,18.1 L453.724,18.1 L453.724,62.949 L467,62.949 C481.329,62.949 490.477,53.234 490.477,40.605 C490.477,27.976 481.329,18.1 467,18.1 M467,68.857 L447.329,68.857 L447.329,12.189 L467,12.189 C484.81,12.189 497.115,24.413 497.115,40.443 C497.115,56.472 484.81,68.857 467,68.857" fill="#296876"/>
      <path d="M556.701,18.017 L522.134,18.017 L522.134,37.366 L553.058,37.366 L553.058,43.195 L522.134,43.195 L522.134,63.029 L557.106,63.029 L557.106,68.857 L515.739,68.857 L515.739,12.189 L556.701,12.189 z" fill="#296876"/>
      <path d="M70.101,24.156 L62.46,19.04 C61.979,18.719 61.59,18.357 61.293,17.957 C60.998,17.558 60.799,17.14 60.698,16.701 C60.504,15.866 60.681,15.062 61.228,14.29 C61.776,13.521 62.519,13.027 63.457,12.808 C63.986,12.686 64.51,12.68 65.03,12.791 C65.551,12.901 66.024,13.109 66.447,13.419 L79.045,22.32 L71.646,35.872 C71.376,36.356 71.037,36.756 70.622,37.075 C70.208,37.394 69.744,37.615 69.23,37.733 C68.25,37.959 67.352,37.829 66.535,37.341 C65.714,36.851 65.199,36.137 64.981,35.198 C64.86,34.684 64.847,34.165 64.935,33.642 C65.025,33.12 65.213,32.629 65.499,32.168 L67.59,28.818" fill="#00ACB0"/>
      <path d="M67.716,53.011 L59.652,57.428 C59.144,57.707 58.643,57.886 58.153,57.964 C57.662,58.042 57.198,58.024 56.764,57.912 C55.933,57.698 55.302,57.172 54.868,56.328 C54.438,55.49 54.343,54.601 54.583,53.668 C54.718,53.142 54.955,52.676 55.293,52.264 C55.63,51.853 56.033,51.53 56.504,51.299 L70.215,44.228 L78.824,57.047 C79.127,57.508 79.326,57.994 79.418,58.511 C79.51,59.025 79.491,59.537 79.36,60.051 C79.107,61.023 78.577,61.759 77.768,62.26 C76.956,62.761 76.083,62.889 75.15,62.649 C74.637,62.518 74.172,62.291 73.746,61.97 C73.325,61.651 72.978,61.257 72.7,60.79 L70.693,57.388" fill="#00ACB0"/>
      <path d="M96.34,12.825 L96.449,3.631 C96.456,3.052 96.547,2.528 96.719,2.062 C96.892,1.596 97.134,1.201 97.445,0.877 C98.04,0.258 98.81,-0.035 99.755,0.003 C100.697,0.04 101.519,0.394 102.213,1.061 C102.605,1.436 102.897,1.873 103.088,2.368 C103.28,2.864 103.362,3.374 103.335,3.897 L102.766,19.313 L87.37,20.521 C86.82,20.56 86.299,20.494 85.805,20.321 C85.312,20.149 84.873,19.88 84.493,19.513 C83.769,18.817 83.388,17.994 83.349,17.041 C83.31,16.089 83.627,15.266 84.294,14.572 C84.66,14.188 85.087,13.893 85.572,13.682 C86.059,13.471 86.572,13.361 87.114,13.35 L91.065,13.269" fill="#00ACB0"/>
      <path d="M119.677,29.365 L127.689,24.851 C128.194,24.568 128.691,24.382 129.181,24.3 C129.67,24.215 130.135,24.226 130.571,24.333 C131.404,24.538 132.041,25.057 132.483,25.893 C132.924,26.729 133.03,27.615 132.802,28.553 C132.673,29.078 132.442,29.548 132.107,29.964 C131.775,30.379 131.375,30.706 130.909,30.945 L117.283,38.178 L108.523,25.462 C108.213,25.005 108.009,24.52 107.909,24.007 C107.813,23.493 107.825,22.979 107.951,22.466 C108.191,21.49 108.712,20.748 109.517,20.239 C110.323,19.727 111.191,19.588 112.13,19.817 C112.643,19.943 113.112,20.162 113.538,20.479 C113.966,20.793 114.319,21.182 114.6,21.646 L116.649,25.023" fill="#00ACB0"/>
      <path d="M117.153,58.163 L124.93,63.068 C125.419,63.377 125.818,63.728 126.125,64.121 C126.431,64.51 126.641,64.924 126.755,65.36 C126.97,66.19 126.817,66.999 126.29,67.783 C125.764,68.568 125.033,69.083 124.103,69.325 C123.577,69.462 123.052,69.482 122.531,69.387 C122.007,69.291 121.53,69.095 121.098,68.798 L108.261,60.242 L115.291,46.493 C115.547,46.002 115.875,45.594 116.281,45.263 C116.685,44.932 117.144,44.699 117.655,44.568 C118.628,44.314 119.53,44.421 120.36,44.887 C121.193,45.354 121.729,46.054 121.97,46.985 C122.106,47.498 122.134,48.016 122.059,48.539 C121.984,49.064 121.808,49.56 121.535,50.027 L119.536,53.435" fill="#00ACB0"/>
      <path d="M91.026,69.492 L90.726,78.682 C90.707,79.26 90.606,79.782 90.424,80.244 C90.243,80.707 89.992,81.097 89.672,81.414 C89.065,82.021 88.291,82.297 87.347,82.239 C86.403,82.183 85.59,81.813 84.912,81.131 C84.527,80.749 84.244,80.305 84.063,79.806 C83.879,79.305 83.808,78.795 83.847,78.272 L84.738,62.87 L100.153,61.982 C100.706,61.956 101.222,62.033 101.715,62.216 C102.206,62.399 102.637,62.677 103.01,63.052 C103.719,63.761 104.083,64.594 104.101,65.546 C104.121,66.5 103.788,67.316 103.106,67.996 C102.733,68.372 102.3,68.659 101.809,68.859 C101.319,69.058 100.802,69.159 100.26,69.159 L96.309,69.158" fill="#00ACB0"/>
      <path d="M361.91,93.837 L358.309,102.236 L365.539,102.236 z M372.919,110.576 L369.019,110.576 L366.889,105.506 L356.96,105.506 L354.8,110.576 L351.019,110.576 L360.26,89.427 L363.68,89.427 z" fill="#296876"/>
      <path d="M383.48,89.578 L387.169,89.578 L387.169,107.217 L398.209,107.217 L398.209,110.577 L383.48,110.577 z" fill="#296876"/>
      <path d="M409.01,89.578 L412.699,89.578 L412.699,107.217 L423.739,107.217 L423.739,110.577 L409.01,110.577 z" fill="#296876"/>
      <path d="M438.439,110.576 L434.749,110.576 L434.749,89.577 L438.439,89.577 z" fill="#296876"/>
      <path d="M460.099,93.837 L456.498,102.236 L463.729,102.236 z M471.109,110.576 L467.208,110.576 L465.078,105.506 L455.149,105.506 L452.99,110.576 L449.209,110.576 L458.449,89.427 L461.869,89.427 z" fill="#296876"/>
      <path d="M496.338,89.578 L499.968,89.578 L499.968,110.577 L496.878,110.577 L485.298,95.638 L485.298,110.577 L481.668,110.577 L481.668,89.578 L485.089,89.578 L496.338,104.098 z" fill="#296876"/>
      <path d="M522.078,110.937 C515.958,110.937 511.398,106.167 511.398,100.107 C511.398,94.108 515.868,89.218 522.227,89.218 C526.098,89.218 528.437,90.568 530.447,92.488 L528.077,95.218 C526.397,93.658 524.598,92.608 522.197,92.608 C518.178,92.608 515.268,95.908 515.268,100.047 C515.268,104.187 518.178,107.547 522.197,107.547 C524.777,107.547 526.428,106.497 528.227,104.817 L530.598,107.217 C528.407,109.497 526.008,110.937 522.078,110.937" fill="#296876"/>
      <path d="M556.997,92.877 L545.118,92.877 L545.118,98.337 L555.647,98.337 L555.647,101.637 L545.118,101.637 L545.118,107.276 L557.147,107.276 L557.147,110.576 L541.428,110.576 L541.428,89.577 L556.997,89.577 z" fill="#296876"/>
    </g>
    <text transform="matrix(1, 0, -0, 1, 278.574, 156.537)">
      <tspan x="-178.07" y="10.5" font-family="MissionGothic-RegularItalic" font-size="32" kerning="-0.416" fill="#373535">F</tspan>
      <tspan x="-164.278" y="10.5" font-family="MissionGothic-RegularItalic" font-size="32" fill="#373535">or </tspan>
      <tspan x="-129.046" y="10.5" font-family="MissionGothic-RegularItalic" font-size="32" kerning="-0.432" fill="#373535">E</tspan>
      <tspan x="-114.31" y="10.5" font-family="MissionGothic-RegularItalic" font-size="32" fill="#373535">co</tspan>
      <tspan x="-83.782" y="10.5" font-family="MissionGothic-RegularItalic" font-size="32" kerning="-0.32" fill="#373535">n</tspan>
      <tspan x="-67.238" y="10.5" font-family="MissionGothic-RegularItalic" font-size="32" fill="#373535">omic De</tspan>
      <tspan x="38.746" y="10.5" font-family="MissionGothic-RegularItalic" font-size="32" kerning="-0.288" fill="#373535">v</tspan>
      <tspan x="52.154" y="10.5" font-family="MissionGothic-RegularItalic" font-size="32" fill="#373535">elop</tspan>
      <tspan x="109.594" y="10.5" font-family="MissionGothic-RegularItalic" font-size="32" kerning="-0.323" fill="#373535">m</tspan>
      <tspan x="133.718" y="10.5" font-family="MissionGothic-RegularItalic" font-size="32" fill="#373535">en</tspan>
      <tspan x="167.382" y="10.5" font-family="MissionGothic-RegularItalic" font-size="32" kerning="0" fill="#373535">t</tspan>
    </text>
  </g>
</svg>
